<svg width="33" height="33" viewBox="0 0 33 33" fill="none" xmlns="http://www.w3.org/2000/svg">
<rect x="0.5" y="0.301361" width="32" height="32" rx="4" fill="white" fill-opacity="0.05"/>
<rect x="1" y="0.801361" width="31" height="31" rx="3.5" stroke="white" stroke-opacity="0.05"/>
<path d="M16.5 6.30136C19.217 6.30136 19.556 6.31136 20.622 6.36136C21.687 6.41136 22.412 6.57836 23.05 6.82636C23.71 7.08036 24.266 7.42436 24.822 7.97936C25.3305 8.47926 25.724 9.08395 25.975 9.75136C26.222 10.3884 26.39 11.1144 26.44 12.1794C26.487 13.2454 26.5 13.5844 26.5 16.3014C26.5 19.0184 26.49 19.3574 26.44 20.4234C26.39 21.4884 26.222 22.2134 25.975 22.8514C25.7247 23.5191 25.3311 24.124 24.822 24.6234C24.322 25.1317 23.7173 25.5251 23.05 25.7764C22.413 26.0234 21.687 26.1914 20.622 26.2414C19.556 26.2884 19.217 26.3014 16.5 26.3014C13.783 26.3014 13.444 26.2914 12.378 26.2414C11.313 26.1914 10.588 26.0234 9.95 25.7764C9.28233 25.5258 8.67753 25.1323 8.178 24.6234C7.66941 24.1235 7.27593 23.5188 7.025 22.8514C6.777 22.2144 6.61 21.4884 6.56 20.4234C6.513 19.3574 6.5 19.0184 6.5 16.3014C6.5 13.5844 6.51 13.2454 6.56 12.1794C6.61 11.1134 6.777 10.3894 7.025 9.75136C7.27524 9.08354 7.6688 8.47868 8.178 7.97936C8.67767 7.47059 9.28243 7.07709 9.95 6.82636C10.588 6.57836 11.312 6.41136 12.378 6.36136C13.444 6.31436 13.783 6.30136 16.5 6.30136ZM16.5 11.3014C15.1739 11.3014 13.9021 11.8281 12.9645 12.7658C12.0268 13.7035 11.5 14.9753 11.5 16.3014C11.5 17.6274 12.0268 18.8992 12.9645 19.8369C13.9021 20.7746 15.1739 21.3014 16.5 21.3014C17.8261 21.3014 19.0979 20.7746 20.0355 19.8369C20.9732 18.8992 21.5 17.6274 21.5 16.3014C21.5 14.9753 20.9732 13.7035 20.0355 12.7658C19.0979 11.8281 17.8261 11.3014 16.5 11.3014ZM23 11.0514C23 10.7198 22.8683 10.4019 22.6339 10.1675C22.3995 9.93306 22.0815 9.80136 21.75 9.80136C21.4185 9.80136 21.1005 9.93306 20.8661 10.1675C20.6317 10.4019 20.5 10.7198 20.5 11.0514C20.5 11.3829 20.6317 11.7008 20.8661 11.9352C21.1005 12.1697 21.4185 12.3014 21.75 12.3014C22.0815 12.3014 22.3995 12.1697 22.6339 11.9352C22.8683 11.7008 23 11.3829 23 11.0514ZM16.5 13.3014C17.2956 13.3014 18.0587 13.6174 18.6213 14.18C19.1839 14.7426 19.5 15.5057 19.5 16.3014C19.5 17.097 19.1839 17.8601 18.6213 18.4227C18.0587 18.9853 17.2956 19.3014 16.5 19.3014C15.7044 19.3014 14.9413 18.9853 14.3787 18.4227C13.8161 17.8601 13.5 17.097 13.5 16.3014C13.5 15.5057 13.8161 14.7426 14.3787 14.18C14.9413 13.6174 15.7044 13.3014 16.5 13.3014Z" fill="white"/>
</svg>
