<svg width="33" height="33" viewBox="0 0 33 33" fill="none" xmlns="http://www.w3.org/2000/svg">
<rect x="0.5" y="0.301361" width="32" height="32" rx="4" fill="white" fill-opacity="0.05"/>
<rect x="1" y="0.801361" width="31" height="31" rx="3.5" stroke="white" stroke-opacity="0.05"/>
<path d="M26.96 10.3014C26.19 10.6514 25.36 10.8814 24.5 10.9914C25.38 10.4614 26.06 9.62136 26.38 8.61136C25.55 9.11136 24.63 9.46136 23.66 9.66136C22.87 8.80136 21.76 8.30136 20.5 8.30136C18.15 8.30136 16.23 10.2214 16.23 12.5914C16.23 12.9314 16.27 13.2614 16.34 13.5714C12.78 13.3914 9.61004 11.6814 7.50004 9.09136C7.13004 9.72136 6.92004 10.4614 6.92004 11.2414C6.92004 12.7314 7.67004 14.0514 8.83004 14.8014C8.12004 14.8014 7.46004 14.6014 6.88004 14.3014V14.3314C6.88004 16.4114 8.36004 18.1514 10.32 18.5414C9.69077 18.7136 9.03013 18.7375 8.39004 18.6114C8.66165 19.4638 9.19358 20.2098 9.91106 20.7443C10.6285 21.2788 11.4955 21.5751 12.39 21.5914C10.8737 22.7918 8.99404 23.4407 7.06004 23.4314C6.72004 23.4314 6.38004 23.4114 6.04004 23.3714C7.94004 24.5914 10.2 25.3014 12.62 25.3014C20.5 25.3014 24.83 18.7614 24.83 13.0914C24.83 12.9014 24.83 12.7214 24.82 12.5314C25.66 11.9314 26.38 11.1714 26.96 10.3014Z" fill="white"/>
</svg>
